#!OML:ASF I:\Actors\actors\Patient Classification 2\Patient 1\Session 1\actor1.ASF
:FULLY-SPECIFIED
:DEGREES
110
root -0.415887 18.5271 5.36599 -1.88083 -7.01332 0.0770147
lowerback 10.0849 0.561367 -2.0076
upperback 0.447843 0.62292 2.00523
thorax -5.23824 0.378875 3.14103
lowerneck -14.9293 0.152185 -0.0264174
upperneck 22.9321 0.602246 -1.5918
head 9.73454 0.0880661 -0.474424
rclavicle -7.33018e-015 5.96354e-015
rhumerus -37.1968 15.6374 -81.3989
rradius 84.7483
rwrist -9.49849
rhand -16.0182 -35.6285
rfingers 7.12502
rthumb 10.1826 -65.362
lclavicle -7.33018e-015 5.96354e-015
lhumerus -32.8705 -36.6228 93.3867
lradius 84.838
lwrist 24.8433
lhand -9.06547 -27.574
lfingers 7.12502
lthumb 16.8834 1.71214
rfemur 7.45421 12.0279 13.1758
rtibia 1.51076e-014
rfoot -16.7482 -14.8804
rtoes -10.7229
lfemur -3.14126 0.753804 -14.8731
ltibia 26.0155
lfoot -23.2975 11.8352
ltoes -55.6401
111
root -0.39643 18.5208 5.34258 -1.79622 -6.92743 0.123664
lowerback 10.572 0.48634 -1.88705
upperback 0.434266 0.536629 2.09305
thorax -5.51959 0.338455 3.17866
lowerneck -15.0188 0.26395 0.162632
upperneck 23.0415 0.834882 -2.07793
head 9.79586 0.155233 -0.646771
rclavicle -1.78906e-015 -9.14409e-015
rhumerus -36.9727 16.3374 -80.6985
rradius 88.4226
rwrist -9.40181
rhand -17.7972 -35.6408
rfingers 7.12502
rthumb 8.46604 -65.4511
lclavicle -1.78906e-015 -9.14409e-015
lhumerus -30.526 -37.8632 91.5695
lradius 86.9961
lwrist 24.9966
lhand -8.83916 -27.8285
lfingers 7.12502
lthumb 17.1013 1.43882
rfemur 5.62984 11.9551 12.7884
rtibia 3.21067
rfoot -17.8965 -14.0675
rtoes -11.6977
lfemur -3.60754 0.86912 -14.9622
ltibia 26.4735
lfoot -23.3147 11.6271
ltoes -55.6382
112
root -0.377966 18.5173 5.32151 -1.54614 -6.82083 0.0240173
lowerback 11.0345 0.432967 -1.60567
upperback 0.30551 0.505285 2.22006
thorax -5.91181 0.324041 3.16
lowerneck -15.0715 0.293923 0.213685
upperneck 23.1452 0.981597 -2.53341
head 9.84798 0.173918 -0.796432
rclavicle 4.42296e-015 1.59028e-015
rhumerus -36.9083 16.8733 -79.8929
rradius 92.0925
rwrist -8.76292
rhand -17.7115 -34.4437
rfingers 7.12502
rthumb 8.54877 -64.2507
lclavicle 4.42296e-015 1.59028e-015
lhumerus -28.1634 -39.1373 89.6821
lradius 89.0602
lwrist 25.3811
lhand -8.67465 -28.2315
lfingers 7.12502
lthumb 17.2596 1.02201
rfemur 4.48317 11.8235 12.6725
rtibia 4.80497
rfoot -18.3144 -13.8724
rtoes -13.3915
lfemur -4.22883 0.976833 -14.8789
ltibia 26.9263
lfoot -23.3445 11.3544
ltoes -55.4852
113
root -0.35456 18.5134 5.29128 -1.17573 -7.64475 -0.109817
lowerback 11.295 0.714297 -1.46778
upperback 0.310924 0.907468 2.41382
thorax -6.0811 0.522499 3.22149
lowerneck -15.1567 0.326592 0.267712
upperneck 22.9811 1.15861 -3.11881
head 9.81374 0.194096 -0.986389
rclavicle -1.54058e-014 -3.18055e-015
rhumerus -36.2522 16.8881 -78.4889
rradius 95.3739
rwrist -6.64369
rhand -14.5536 -33.6352
rfingers 7.12502
rthumb 11.5953 -63.2944
lclavicle -1.54058e-014 -3.18055e-015
lhumerus -25.3323 -40.278 87.4238
lradius 91.0758
lwrist 25.8891
lhand -8.81526 -28.6611
lfingers 7.12502
lthumb 17.1243 0.604265
rfemur 3.14725 12.5964 12.5196
rtibia 5.93703
rfoot -18.4346 -13.921
rtoes -14.8864
lfemur -4.84976 1.70965 -14.8016
ltibia 27.3837
lfoot -23.4935 11.3551
ltoes -55.3525
114
root -0.331362 18.5104 5.28317 -1.14367 -6.41651 -0.21506
lowerback 11.4067 0.313631 -1.21165
upperback 0.602631 0.415785 2.62655
thorax -5.80156 0.269816 3.38011
lowerneck -15.3428 0.370288 0.280651
upperneck 22.6443 1.35263 -3.69114
head 9.73906 0.22173 -1.16085
rclavicle 3.926e-015 -6.36111e-015
rhumerus -35.6059 17.5813 -77.4148
rradius 98.7445
rwrist -6.96508
rhand -15.3729 -32.7115
rfingers 7.12502
rthumb 10.8051 -62.4136
lclavicle 3.926e-015 -6.36111e-015
lhumerus -21.902 -41.229 84.6577
lradius 92.9419
lwrist 26.3192
lhand -9.07042 -29.0282
lfingers 7.12502
lthumb 16.8787 0.258263
rfemur 3.047 11.3748 12.5709
rtibia 6.65489
rfoot -18.8747 -13.7173
rtoes -15.0018
lfemur -5.34699 1.16531 -14.6809
ltibia 27.7701
lfoot -23.1961 10.7469
ltoes -55.491
115
root -0.311091 18.5062 5.25882 -0.919634 -6.52711 -0.236834
lowerback 11.6412 0.445395 -1.18341
upperback 0.776255 0.599919 2.76619
thorax -5.76364 0.358864 3.48159
lowerneck -15.5992 0.347072 0.156592
upperneck 22.3989 1.43521 -4.04043
head 9.70593 0.210278 -1.24921
rclavicle 1.23246e-014 4.6118e-014
rhumerus -35.1025 18.0302 -76.2732
rradius 102.163
rwrist -6.92862
rhand -15.4641 -32.4003
rfingers 7.12502
rthumb 10.7171 -62.107
lclavicle 1.23246e-014 4.6118e-014
lhumerus -18.3366 -42.0837 81.6603
lradius 94.699
lwrist 26.7273
lhand -9.33383 -29.2948
lfingers 7.12502
lthumb 16.6251 0.0131456
rfemur 2.4043 11.4562 12.4156
rtibia 7.18125
rfoot -19.0898 -13.6886
rtoes -14.6734
lfemur -5.85067 1.32607 -14.7143
ltibia 28.1043
lfoot -23.1353 10.5623
ltoes -55.4129
116
root -0.312893 18.5055 5.25531 -0.738132 -5.35878 -0.320374
lowerback 11.7851 0.212565 -1.19491
upperback 0.919774 0.296424 2.92609
thorax -5.67228 0.209139 3.7075
lowerneck -15.967 0.260959 -0.0119469
upperneck 22.2926 1.41432 -4.25119
head 9.7391 0.159935 -1.29685
rclavicle 6.75868e-015 -2.8625e-014
rhumerus -34.7645 18.326 -75.145
rradius 105.551
rwrist -6.57492
rhand -15.5295 -32.0947
rfingers 7.12502
rthumb 10.6541 -61.8046
lclavicle 6.75868e-015 -2.8625e-014
lhumerus -14.7383 -42.7895 78.575
lradius 96.4247
lwrist 27.1394
lhand -9.57661 -29.3268
lfingers 7.12502
lthumb 16.3913 0.000602789
rfemur 2.41684 10.2729 12.5712
rtibia 7.48287
rfoot -19.5068 -13.5768
rtoes -14.2497
lfemur -6.39111 0.806405 -14.5247
ltibia 28.3475
lfoot -22.8167 9.78787
ltoes -55.3597
117
root -0.306095 18.5058 5.24148 -0.453125 -4.42023 -0.381873
lowerback 12.0687 0.138975 -1.19613
upperback 0.986884 0.206183 3.05439
thorax -5.75389 0.166895 3.86177
lowerneck -16.4064 0.0729538 -0.28274
upperneck 22.201 1.25521 -4.35252
head 9.78617 0.0485272 -1.30791
rclavicle 1.02374e-014 8.74653e-015
rhumerus -34.4508 18.4781 -73.8786
rradius 108.912
rwrist -6.0721
rhand -15.7749 -32.0808
rfingers 7.12502
rthumb 10.4173 -61.8027
lclavicle 1.02374e-014 8.74653e-015
lhumerus -11.0853 -43.3651 75.5455
lradius 98.1312
lwrist 27.5991
lhand -9.74249 -29.3062
lfingers 7.12502
lthumb 16.2316 0.0342868
rfemur 2.21464 9.30523 12.6033
rtibia 7.70985
rfoot -19.7323 -13.5767
rtoes -14.3106
lfemur -7.06778 0.385831 -14.4055
ltibia 28.5829
lfoot -22.5512 9.11389
ltoes -55.1449
118
root -0.300539 18.5104 5.22323 -0.0866413 -3.42823 -0.452611
lowerback 12.3748 0.150137 -1.24777
upperback 1.03483 0.222615 3.18269
thorax -5.87625 0.179384 4.02808
lowerneck -16.8606 -0.231444 -0.659814
upperneck 22.0353 0.929566 -4.31821
head 9.80486 -0.131781 -1.27564
rclavicle 1.05356e-014 -2.54444e-014
rhumerus -34.0001 18.5755 -72.4297
rradius 112.121
rwrist -5.30744
rhand -16.1714 -32.326
rfingers 7.12502
rthumb 10.0348 -62.0667
lclavicle 1.05356e-014 -2.54444e-014
lhumerus -7.4018 -43.8085 72.6524
lradius 99.8455
lwrist 28.152
lhand -9.76271 -29.2305
lfingers 7.12502
lthumb 16.2121 0.111603
rfemur 2.02604 8.27485 12.6307
rtibia 7.69161
rfoot -19.7639 -13.6815
rtoes -14.5665
lfemur -7.87438 -0.095644 -14.2835
ltibia 28.8361
lfoot -22.2525 8.49211
ltoes -54.9904
119
root -0.294299 18.5183 5.19843 0.351386 -2.35487 -0.599964
lowerback 12.7005 0.224082 -1.20384
upperback 1.07993 0.334277 3.27935
thorax -6.01968 0.23629 4.08985
lowerneck -17.3595 -0.616026 -0.991987
upperneck 21.8574 0.4621 -4.19451
head 9.82529 -0.363008 -1.23986
rclavicle -3.8763e-015 -3.97569e-015
rhumerus -33.5423 18.8157 -70.9934
rradius 115.051
rwrist -4.0088
rhand -16.5927 -32.7158
rfingers 7.12502
rthumb 9.62836 -62.4758
lclavicle -3.8763e-015 -3.97569e-015
lhumerus -3.6311 -44.1586 69.8868
lradius 101.437
lwrist 28.6666
lhand -9.74578 -28.9696
lfingers 7.12502
lthumb 16.2284 0.371206
rfemur 1.84654 7.15616 12.7335
rtibia 7.42282
rfoot -19.6125 -13.8723
rtoes -14.9647
lfemur -8.80645 -0.814663 -14.1154
ltibia 29.0835
lfoot -21.9361 8.11182
ltoes -54.9825
120
root -0.278646 18.527 5.16063 0.943233 -1.37082 -0.778408
lowerback 13.1152 0.434675 -0.940712
upperback 1.02166 0.655527 3.26276
thorax -6.33566 0.391963 3.86827
lowerneck -17.9107 -1.14328 -1.44802
upperneck 21.772 -0.229356 -3.78885
head 9.88661 -0.675845 -1.1183
rclavicle -4.07509e-015 1.59028e-014
rhumerus -33.0697 18.6232 -69.2389
rradius 118.253
rwrist -4.14179
rhand -15.9189 -36.204
rfingers 7.12502
rthumb 10.2784 -65.9328
lclavicle -4.07509e-015 1.59028e-014
lhumerus 0.274828 -44.6238 67.2696
lradius 102.798
lwrist 28.9982
lhand -9.77446 -28.7541
lfingers 7.12502
lthumb 16.2008 0.588905
rfemur 1.62113 6.1092 12.7973
rtibia 6.62178
rfoot -19.1154 -14.256
rtoes -15.3792
lfemur -9.95563 -1.6281 -13.9818
ltibia 29.2895
lfoot -21.6061 8.04791
ltoes -54.967
